<svg width="60" height="60" viewBox="0 0 60 60" fill="none" xmlns="http://www.w3.org/2000/svg">
<g clip-path="url(#clip0_55_418)">
<mask id="mask0_55_418" style="mask-type:luminance" maskUnits="userSpaceOnUse" x="0" y="0" width="60" height="60">
<path d="M59.838 0H0.648743V59.1892H59.838V0Z" fill="white"/>
</mask>
<g mask="url(#mask0_55_418)">
<path d="M12.4286 14.1428V30C15.4286 28.9999 22.8 28.8 28.2857 36C29.5714 38.7143 31.6286 45 29.5714 48.4285L35.5714 51.8571V26.1428L12.4286 14.1428Z" fill="#FDC040"/>
<path d="M59.2387 12.8016L36.1865 0.14344C35.8402 -0.046674 35.4202 -0.046674 35.0739 0.14344L26.3851 4.91436C26.2018 4.96268 26.0306 5.0548 25.8888 5.18711L12.0221 12.8016C11.6524 13.0044 11.4225 13.3927 11.4225 13.815V29.1244C9.08333 29.8559 6.93965 31.146 5.15728 32.9289C0.511445 37.5743 -0.673043 44.6595 2.20983 50.5594C2.48981 51.1329 3.18208 51.3709 3.75558 51.0905C4.32953 50.81 4.56707 50.1178 4.28709 49.5443C1.83773 44.5313 2.84429 38.5113 6.79199 34.5636C9.26075 32.0948 12.5428 30.7351 16.034 30.7351C19.5251 30.7351 22.8072 32.0948 25.276 34.5636C27.7443 37.032 29.104 40.314 29.104 43.8052C29.104 47.2963 27.7443 50.5784 25.2755 53.0471C21.3279 56.9948 15.3078 58.0014 10.2949 55.5521C9.72138 55.2716 9.02907 55.5096 8.74913 56.0831C8.4687 56.6571 8.70627 57.3493 9.28021 57.6293C11.4292 58.6797 13.735 59.19 16.024 59.19C20.0174 59.1895 23.9574 57.6352 26.9107 54.6819C28.265 53.3276 29.3352 51.7651 30.0925 50.0667L35.0739 52.8019C35.2473 52.8972 35.4388 52.9446 35.6302 52.9446C35.8216 52.9446 36.0136 52.8972 36.1865 52.8019L59.2387 40.1442C59.6086 39.941 59.8384 39.5526 59.8384 39.1308V31.0968C59.8384 30.4583 59.3209 29.9408 58.6823 29.9408C58.0438 29.9408 57.5263 30.4583 57.5263 31.0968V38.4468L36.7899 49.8333V27.155L43.6336 23.397V29.3542C43.6336 29.7634 43.8494 30.1417 44.2012 30.3495C44.3827 30.4566 44.5859 30.5102 44.7896 30.5102C44.9811 30.5102 45.173 30.4628 45.3468 30.3671L50.2866 27.6481C50.656 27.4449 50.885 27.057 50.885 26.6357V19.415L57.5263 15.7685V21.8489C57.5263 22.4875 58.0438 23.0051 58.6823 23.0051C59.3209 23.0051 59.8384 22.4875 59.8384 21.8489V13.815C59.8384 13.3932 59.6086 13.0044 59.2387 12.8016ZM35.6302 2.47539L56.2804 13.815L49.7664 17.3919L29.1162 6.05234L35.6302 2.47539ZM35.6302 25.1541L14.98 13.815L21.7329 10.1066L42.3836 21.4458L35.6302 25.1541ZM44.785 20.1271L24.1348 8.78798L26.7142 7.3714L47.3649 18.7105L44.785 20.1271ZM26.9107 32.9289C24.0052 30.0234 20.1424 28.4235 16.034 28.4235C15.2568 28.4235 14.4892 28.4808 13.7345 28.5933V15.7685L34.4782 27.1591V49.8373L30.8778 47.8603C31.2323 46.5552 31.4157 45.1942 31.4157 43.8052C31.4157 39.6967 29.8157 35.8339 26.9107 32.9289ZM48.5734 25.9524L45.9456 27.3989V22.1276L48.5734 20.6848V25.9524Z" fill="#3BB77E"/>
<path d="M58.6819 25.3105C58.378 25.3105 58.0795 25.4343 57.8646 25.6493C57.6496 25.8642 57.5259 26.1623 57.5259 26.4666C57.5259 26.7705 57.6496 27.0685 57.8646 27.2835C58.0795 27.4989 58.378 27.6222 58.6819 27.6222C58.9858 27.6222 59.2843 27.4989 59.4993 27.2835C59.7142 27.0685 59.838 26.7705 59.838 26.4666C59.838 26.1623 59.7142 25.8642 59.4993 25.6493C59.2843 25.4343 58.9858 25.3105 58.6819 25.3105Z" fill="#3BB77E"/>
<path d="M12.1463 44.9605C12.4421 44.9605 12.7384 44.8476 12.9637 44.6223C13.4153 44.1706 13.4153 43.4386 12.9637 42.9871L12.1631 42.186H18.9954C20.6527 42.186 22.0011 43.5344 22.0011 45.1917C22.0011 46.849 20.6527 48.1974 18.9954 48.1974H14.947C14.3085 48.1974 13.7909 48.7149 13.7909 49.3534C13.7909 49.9915 14.3085 50.509 14.947 50.509H18.9954C21.9275 50.509 24.3132 48.1238 24.3132 45.1917C24.3132 42.2596 21.9275 39.8744 18.9954 39.8744H12.1631L12.9637 39.0732C13.4153 38.6217 13.4153 37.8897 12.9637 37.4381C12.5125 36.9869 11.7805 36.9869 11.329 37.4381L8.55447 40.2126C8.10334 40.6642 8.10334 41.3962 8.55447 41.8478L11.329 44.6218C11.5547 44.8476 11.8505 44.9605 12.1463 44.9605Z" fill="#3BB77E"/>
<path d="M5.97506 55.0216C5.64631 55.0216 5.31981 54.8816 5.09177 54.6102L5.08952 54.6075C4.67858 54.1189 4.7418 53.39 5.23041 52.9791C5.71901 52.5677 6.44831 52.631 6.85925 53.1195C7.26973 53.6086 7.20787 54.3388 6.71925 54.7497C6.50205 54.9322 6.23787 55.0216 5.97506 55.0216Z" fill="#3BB77E"/>
</g>
</g>
<defs>
<clipPath id="clip0_55_418">
<rect width="60" height="60" fill="white"/>
</clipPath>
</defs>
</svg>
