<svg width="60" height="60" viewBox="0 0 60 60" fill="none" xmlns="http://www.w3.org/2000/svg">
<g clip-path="url(#clip0_55_376)">
<g clip-path="url(#clip1_55_376)">
<g clip-path="url(#clip2_55_376)">
<mask id="mask0_55_376" style="mask-type:luminance" maskUnits="userSpaceOnUse" x="0" y="0" width="60" height="60">
<path d="M59.7916 0H0.486542V59.305H59.7916V0Z" fill="white"/>
</mask>
<g mask="url(#mask0_55_376)">
<path d="M44.0168 55.9462C43.4162 55.9462 42.9224 56.4031 42.8641 56.9884H34.1476L32.7725 48.7078L34.3009 47.1794C34.5181 46.9622 34.6402 46.6675 34.6402 46.3604C34.6402 46.0532 34.5181 45.7586 34.3009 45.5413L32.9485 44.1889H35.2595C37.7957 44.1889 40.1557 45.4477 41.5722 47.5563C41.929 48.0873 42.6487 48.2285 43.1795 47.8719C43.7105 47.5151 43.8518 46.7954 43.4951 46.2643C41.662 43.5359 38.6169 41.8992 35.3374 41.8735C36.4595 40.6308 37.1439 38.9858 37.1439 37.1838V35.4849C37.1439 31.6222 34.0014 28.4797 30.1387 28.4797C26.276 28.4797 23.1335 31.6222 23.1335 35.4849V37.1838C23.1335 38.9863 23.8182 40.6315 24.9406 41.8743C19.5089 41.9162 15.1025 46.3464 15.1025 51.7879V58.1467C15.1025 58.7863 15.6211 59.305 16.2609 59.305H44.0165C44.6563 59.305 45.1749 58.7863 45.1749 58.1467V57.1045C45.1751 56.4649 44.6565 55.9462 44.0168 55.9462ZM30.1523 48.052L28.4606 46.3604L30.1523 44.6689L31.844 46.3604L30.1523 48.052ZM29.5527 50.6798C29.7365 50.7913 29.9441 50.8483 30.1522 50.8483C30.3602 50.8483 30.5679 50.7913 30.7516 50.6798L31.7993 56.9884H28.505L29.5527 50.6798ZM25.4504 35.4849C25.4504 32.8997 27.5536 30.7963 30.139 30.7963C32.7243 30.7963 34.8275 32.8995 34.8275 35.4849V37.1838C34.8275 39.769 32.7243 41.8723 30.139 41.8723C27.5536 41.8723 25.4504 39.7691 25.4504 37.1838V35.4849ZM17.4194 51.7879C17.4194 47.5977 20.8283 44.1889 25.0183 44.1889H27.3557L26.0033 45.5413C25.7861 45.7586 25.6641 46.0532 25.6641 46.3604C25.6641 46.6675 25.7861 46.9622 26.0033 47.1794L27.5318 48.7078L26.1567 56.9884H17.4193L17.4194 51.7879Z" fill="#3BB77E"/>
<path d="M24 1.28577C24.3429 1.28577 32.1429 1.57148 36 1.71434V14.1429L24 13.7143V1.28577Z" fill="#FDC040"/>
<path d="M51.4286 1.71423L45.4286 12.8571H58.2857L52.2857 2.1428L51.4286 1.71423Z" fill="#FDC040"/>
<path d="M24 1.28577C24.3429 1.28577 32.1429 1.57148 36 1.71434V14.1429L24 13.7143V1.28577Z" stroke="black" stroke-width="0.857143" stroke-linecap="round" stroke-linejoin="round"/>
<path d="M51.4286 1.71423L45.4286 12.8571H58.2857L52.2857 2.1428L51.4286 1.71423Z" stroke="black" stroke-width="0.857143" stroke-linecap="round" stroke-linejoin="round"/>
<path d="M15.2995 7.40751C15.2995 3.32357 11.9769 0.00109863 7.89306 0.00109863C3.80924 0.00109863 0.486542 3.32369 0.486542 7.40751C0.486542 11.4913 3.80913 14.814 7.89295 14.814C11.9768 14.814 15.2995 11.4914 15.2995 7.40751ZM2.80314 7.40751C2.80314 4.60106 5.08638 2.3177 7.89295 2.3177C10.6995 2.3177 12.9827 4.60106 12.9827 7.40751C12.9827 10.2139 10.6995 12.4974 7.89295 12.4974C5.08638 12.4974 2.80314 10.2141 2.80314 7.40751Z" fill="#3BB77E"/>
<path d="M23.891 14.8131H36.3874C37.027 14.8131 37.5456 14.2943 37.5456 13.6547V1.15842C37.5456 0.518809 37.027 0.00012207 36.3874 0.00012207H23.891C23.2513 0.00012207 22.7327 0.518809 22.7327 1.15842V13.6547C22.7327 14.2943 23.2513 14.8131 23.891 14.8131ZM25.0493 2.31673H35.229V12.4965H25.0493V2.31673Z" fill="#3BB77E"/>
<path d="M59.6364 12.6154L52.9528 1.03936C52.746 0.680978 52.3636 0.460205 51.9498 0.460205C51.5359 0.460205 51.1535 0.680978 50.9467 1.03936L44.2631 12.6154C44.0562 12.9738 44.0562 13.4153 44.2631 13.7737C44.47 14.1321 44.8524 14.3529 45.2662 14.3529H58.6333C59.0471 14.3529 59.4295 14.1321 59.6364 13.7737C59.8433 13.4153 59.8433 12.9738 59.6364 12.6154ZM47.2724 12.0363L51.9496 3.93511L56.6269 12.0363H47.2724Z" fill="#3BB77E"/>
<path d="M30.139 26.2058C30.7788 26.2058 31.2974 25.687 31.2974 25.0474V21.7425L31.3442 21.808C31.5704 22.124 31.9261 22.2923 32.2872 22.2923C32.5205 22.2923 32.7561 22.222 32.9604 22.0758C33.4806 21.7036 33.6005 20.98 33.2282 20.4598L31.0811 17.4595C30.8636 17.1556 30.5128 16.9752 30.1392 16.9752C29.7655 16.9752 29.4147 17.1556 29.1972 17.4595L27.05 20.4598C26.6778 20.98 26.7977 21.7036 27.3179 22.0758C27.8381 22.4481 28.5615 22.3283 28.934 21.808L28.9808 21.7425V25.0474C28.9808 25.6872 29.4993 26.2058 30.139 26.2058Z" fill="#3BB77E"/>
<path d="M20.6023 35.5869C20.6023 34.9472 20.0837 34.4285 19.444 34.4285H9.05787V21.7425L9.10484 21.808C9.33104 22.124 9.68658 22.2923 10.0478 22.2923C10.281 22.2923 10.5166 22.222 10.721 22.0758C11.2412 21.7036 11.361 20.98 10.9888 20.4598L8.84161 17.4595C8.62407 17.1556 8.27337 16.9752 7.8997 16.9752C7.52603 16.9752 7.1753 17.1556 6.95777 17.4595L4.81063 20.4598C4.43835 20.98 4.55823 21.7036 5.07843 22.0758C5.59851 22.4481 6.3221 22.3283 6.69449 21.808L6.74128 21.7425V35.5869C6.74128 36.2265 7.25986 36.7451 7.89958 36.7451H19.444C20.0836 36.7451 20.6023 36.2266 20.6023 35.5869Z" fill="#3BB77E"/>
<path d="M53.3203 17.4594C53.1028 17.1554 52.7521 16.9751 52.3784 16.9751C52.0048 16.9751 51.6541 17.1554 51.4365 17.4594L49.2894 20.4597C48.9171 20.9799 49.0369 21.7034 49.5571 22.0757C50.0773 22.448 50.8009 22.3282 51.1732 21.8079L51.2201 21.7424V34.4285H40.834C40.1942 34.4285 39.6757 34.9472 39.6757 35.5868C39.6757 36.2264 40.1942 36.7451 40.834 36.7451H52.3784C53.0181 36.7451 53.5367 36.2264 53.5367 35.5868V21.7424L53.5837 21.8079C53.8099 22.124 54.1655 22.2923 54.5266 22.2923C54.7599 22.2923 54.9955 22.222 55.1998 22.0758C55.72 21.7035 55.8399 20.9801 55.4677 20.4599L53.3203 17.4594Z" fill="#3BB77E"/>
<path d="M44.0165 53.0505C44.6562 53.0505 45.1748 52.5319 45.1748 51.8922C45.1748 51.2525 44.6562 50.7339 44.0165 50.7339C43.3767 50.7339 42.8582 51.2525 42.8582 51.8922C42.8582 52.5319 43.3767 53.0505 44.0165 53.0505Z" fill="#3BB77E"/>
</g>
</g>
</g>
</g>
<defs>
<clipPath id="clip0_55_376">
<rect width="60" height="60" fill="white"/>
</clipPath>
<clipPath id="clip1_55_376">
<rect width="60" height="60" fill="white"/>
</clipPath>
<clipPath id="clip2_55_376">
<rect width="60" height="60" fill="white"/>
</clipPath>
</defs>
</svg>
