<svg width="14" height="29" viewBox="0 0 14 29" fill="none" xmlns="http://www.w3.org/2000/svg">
<path d="M9.29186 7.64537C9.27635 8.6508 9.28859 9.65533 9.28859 10.6961C9.41751 10.7025 9.5244 10.7134 9.6321 10.7134C10.6904 10.7143 11.7495 10.7125 12.8086 10.7143C13.45 10.7161 13.6083 10.8911 13.6091 11.591C13.6107 12.9373 13.6115 14.2836 13.6091 15.6299C13.6074 16.2537 13.4679 16.4114 12.9033 16.4142C11.8238 16.4196 10.7451 16.416 9.66557 16.416H9.29023V27.4604C9.29023 28.4586 9.2021 28.5546 8.28905 28.5546C7.12794 28.5546 5.96766 28.5556 4.80737 28.5538C4.16276 28.5529 4.01345 28.3888 4.01262 27.6779C4.01181 24.0923 4.01262 20.5058 4.01262 16.9191V16.4785C3.8886 16.4704 3.78171 16.4577 3.67482 16.4577C2.78951 16.4559 1.90338 16.4586 1.01808 16.4559C0.403664 16.4531 0.255161 16.2945 0.253529 15.6182C0.248633 14.2945 0.249449 12.9708 0.252713 11.6472C0.254345 10.9436 0.399586 10.7859 1.02542 10.785C1.90094 10.7841 2.77646 10.785 3.65198 10.785H4.01262C4.01262 10.6173 4.011 10.4849 4.01262 10.3525C4.03385 9.06332 3.99222 7.76867 4.09015 6.48762C4.3382 3.26278 6.56984 0.928243 9.48605 0.806757C10.7059 0.755987 11.9282 0.784998 13.1505 0.788625C13.5544 0.790438 13.7274 0.984453 13.7298 1.43595C13.7364 2.78227 13.7364 4.1286 13.7298 5.47492C13.7274 5.93277 13.5577 6.11408 13.1154 6.12587C12.2913 6.14763 11.4664 6.14853 10.6423 6.16213C9.68597 6.17845 9.30899 6.58008 9.29186 7.64537Z" fill="#555555"/>
</svg>
