<svg width="60" height="60" viewBox="0 0 60 60" fill="none" xmlns="http://www.w3.org/2000/svg">
<g clip-path="url(#clip0_55_295)">
<g clip-path="url(#clip1_55_295)">
<mask id="mask0_55_295" style="mask-type:luminance" maskUnits="userSpaceOnUse" x="0" y="0" width="60" height="60">
<path d="M59.4672 0H0.162179V59.305H59.4672V0Z" fill="white"/>
</mask>
<g mask="url(#mask0_55_295)">
<path d="M38.1429 28.2857L41.1429 23.5714L45.4286 21.4286C46 21.2857 47.2286 21.0857 47.5714 21.4286C47.9143 21.7714 52.8572 28.4286 55.2857 31.7143L57.4286 35.5714C57 36.4286 56.0571 38.2286 55.7143 38.5714C55.3714 38.9143 52.1428 40.4286 50.5714 41.1429C49.7143 41.2857 47.9143 41.5714 47.5714 41.5714C47.2286 41.5714 43.1428 36.1429 41.1429 33.4286L38.8929 29.5714L38.1429 28.2857Z" fill="#FDC040"/>
<path d="M47.5714 41.5714C47.2286 41.5714 43.1428 36.1429 41.1429 33.4286L38.8929 29.5714H37.2857H33C32.5714 29.5714 30.4286 30.4286 29.5714 30.8571L27 32.1428C26.1429 32.5714 25.2857 33.4286 24.8571 33.8571C24.4286 34.2857 23.5714 35.5714 23.5714 36C23.5714 36.4286 23.5714 37.2857 24 37.7143C24.4286 38.1428 25.2857 38.5714 25.7143 38.5714H28.2857C28.9714 38.5714 30.8571 37.7143 31.7143 37.2857C32 37.4286 32.6571 37.8 33 38.1428C33.3429 38.4857 36.2857 40.5714 37.7143 41.5714L41.1429 45C41.7143 45.2857 42.9429 45.7714 43.2857 45.4286C43.6286 45.0857 44.8571 44.1428 45.4286 43.7143L46.7143 42.8571L47.5714 41.5714Z" fill="#FDC040"/>
<path d="M13.2857 46.2858C13.2857 46.9715 14.4285 48.2857 15 48.8572L18 51.4286L19.7143 52.7143L21.4286 54.4286C22 54.7143 23.1429 55.3715 23.1429 55.7143C23.1429 56.0572 24.8571 56.4286 25.7143 56.5715C26.1429 56.2858 27.0857 55.6286 27.4286 55.2858C27.8571 54.8572 27.8571 54.8572 27.8571 54.0001C27.8571 53.1429 27.8571 52.2858 27.4286 51.4286C27 50.5715 27 48.8572 26.5714 48.4286C26.1429 48.0001 24.4286 47.1429 24.4286 46.7143C24.4286 46.2858 23.1429 44.5715 22.7143 44.1429C22.2857 43.7143 21.4286 42.0001 21 41.5715C20.5714 41.1429 19.2857 40.2858 18.4286 40.7143C17.5714 41.1429 15 43.2858 14.5714 43.7143C14.2286 44.0572 13.5714 45.5715 13.2857 46.2858Z" fill="#FDC040"/>
<path d="M21.4286 4.28577C24 7.8572 31.3714 14.8286 40.2857 14.1429L38.5714 19.2858L36 21.4286L27.8571 24.0001L21.4286 21.8572L17.5714 15.0001L18 9.42862L20.1429 5.57148L21.4286 4.28577Z" fill="#FDC040"/>
<path d="M28.856 15.4069C28.4035 15.4069 27.8487 15.3408 27.4688 14.9174C27.3367 14.7687 27.221 14.6298 27.1088 14.514C26.2038 13.5616 24.6449 14.8844 25.5895 16.121L25.8174 16.4153C25.9659 16.6007 26.2335 16.8155 26.6166 17.0603C26.9899 17.2981 27.4059 17.4702 27.8684 17.5727V19.2064C27.8684 19.7685 28.3273 20.2315 28.889 20.2315C29.4537 20.2315 29.9325 19.7685 29.9325 19.2064V17.5628C30.6724 17.3911 31.3065 17.0305 31.825 16.485C32.3467 15.9391 32.6077 15.2151 32.6077 14.3123C32.6077 13.6973 32.489 13.1848 32.251 12.7713C32.0133 12.3613 31.7226 12.0737 31.3758 11.9115C31.0257 11.7494 30.6459 11.6072 30.2265 11.485C29.8104 11.3627 29.4306 11.2766 29.0805 11.2238C28.7337 11.174 28.4431 11.0682 28.2052 10.9129C27.9674 10.754 27.8486 10.5491 27.8486 10.2944C27.8486 9.07762 29.632 9.22634 30.4179 9.88771C31.5772 10.8632 32.8751 9.07762 31.5309 8.06906L31.3757 7.93006C31.2699 7.84759 31.0851 7.74496 30.8175 7.61593C30.5533 7.48713 30.2559 7.3911 29.9325 7.3216V6.33299V5.90315C29.9325 5.34091 29.4733 4.87805 28.9086 4.87805C28.3471 4.87805 27.8848 5.3408 27.8848 5.90315V7.30515C27.1317 7.454 26.5075 7.82778 26.075 8.37983C25.639 8.94211 25.4177 9.56388 25.4177 10.258C25.4177 10.9559 25.5797 11.5279 25.9032 11.981C26.2269 12.4338 26.6199 12.7513 27.0856 12.9366C27.548 13.1218 28.0102 13.2707 28.4727 13.3796C28.9383 13.4923 29.3314 13.6144 29.6549 13.7567C29.9787 13.8955 30.1405 14.0907 30.1405 14.3453C30.1406 15.0529 29.7113 15.4069 28.856 15.4069Z" fill="#3BB77E"/>
<path d="M58.2428 33.4573L48.7252 21.2664C48.0842 20.4431 47.1122 19.9708 46.0587 19.9708C45.3152 19.9708 44.6113 20.2069 44.0205 20.6551L37.7919 25.4031C37.0789 25.9465 36.6234 26.7351 36.5092 27.6235C36.4922 27.7559 36.4841 27.8879 36.4827 28.0193C34.1082 27.8394 31.6556 28.0203 29.2737 29.5684L29.1669 29.6378L23.1417 28.7163C23.154 28.5077 23.1473 28.2966 23.1198 28.0847C23.0049 27.1984 22.5502 26.4117 21.8386 25.8692L15.6084 21.1254C14.1487 20.0091 12.0381 20.2803 10.9031 21.7315L8.63426 24.6382C8.23718 25.1467 8.32775 25.8807 8.83628 26.2776C9.34483 26.6746 10.0789 26.584 10.4758 26.0756L12.744 23.1699C13.0874 22.7308 13.7492 22.6444 14.1912 22.9826L20.4229 27.7274C20.6339 27.8883 20.7689 28.1218 20.803 28.3852C20.8371 28.649 20.7659 28.9101 20.6033 29.1189L11.084 41.3117C10.7429 41.7497 10.0803 41.8353 9.63891 41.5006L3.40995 36.7521C3.19775 36.5904 3.06212 36.356 3.02817 36.0922C2.99447 35.8297 3.06571 35.5704 3.2296 35.361L4.84798 33.2877C5.24493 32.7792 5.15447 32.0452 4.64586 31.6484C4.13737 31.2512 3.40335 31.3419 3.00628 31.8504L1.38884 33.9225C0.837829 34.6269 0.597134 35.5031 0.711111 36.3899C0.825204 37.2782 1.28088 38.0667 1.9937 38.61L8.22466 43.3602C8.83106 43.8201 9.54771 44.0427 10.2597 44.0426C10.6714 44.0426 11.0811 43.9669 11.4675 43.821L12.2739 44.9254C11.8355 45.725 11.7672 46.6855 12.1195 47.6124C12.623 48.9378 13.8111 49.8363 15.0964 49.8791C15.1363 50.0679 15.1915 50.2566 15.2669 50.4435C15.7851 51.7272 16.9681 52.601 18.2393 52.6585C18.2451 52.6918 18.2495 52.7253 18.2564 52.7587C18.4983 53.9341 19.4 54.9379 20.5535 55.3161C20.8473 55.4124 21.1437 55.4619 21.4371 55.4706C21.5494 55.9438 21.7843 56.4009 22.1454 56.8022C22.7082 57.4278 23.5299 57.8281 24.4312 57.8279C25.0858 57.8279 25.7825 57.6155 26.4522 57.126L27.7749 58.3624C28.4486 58.9911 29.2967 59.305 30.1367 59.305C30.9888 59.3049 31.8322 58.982 32.4764 58.3372C32.8605 57.9528 33.1581 57.4954 33.3506 57.0139C33.6788 57.1137 33.9994 57.1609 34.3071 57.1609C35.1734 57.1608 35.9379 56.795 36.4856 56.2308C36.9338 55.7692 37.2546 55.1547 37.3965 54.4997C37.4439 54.5021 37.4913 54.5041 37.5388 54.5045C37.5506 54.5047 37.562 54.5047 37.5737 54.5047C38.4951 54.5047 39.379 54.1478 40.0034 53.5226C40.4408 53.0847 40.7416 52.5458 40.8853 51.9573C41.1081 52.0008 41.3319 52.0235 41.5552 52.0235C41.8364 52.0235 42.1168 51.9886 42.3931 51.9178C43.5195 51.6292 44.3893 50.7489 44.663 49.6203C44.9156 48.579 44.6553 47.482 43.9468 46.4849C45.7813 45.009 46.5233 44.282 47.3613 42.9225C47.9337 43.3437 48.6306 43.5756 49.3671 43.5756C50.1128 43.5756 50.818 43.3378 51.4044 42.8895L57.6371 38.1439C58.3481 37.6019 58.8029 36.8153 58.9179 35.9289C59.0327 35.0416 58.7934 34.1642 58.2428 33.4573ZM15.7075 47.3034C15.5286 47.4651 15.355 47.5471 15.1917 47.5471C14.8562 47.5471 14.4661 47.2115 14.3032 46.7829C14.1554 46.3935 14.2243 46.0683 14.5088 45.8157L14.5125 45.8124L14.5161 45.8093L18.4513 42.3115C18.7805 42.0195 19.1118 41.8651 19.4096 41.8651C19.8453 41.8651 20.1711 42.1959 20.2894 42.5037C20.4159 42.8322 20.3398 43.1254 20.0646 43.3743L19.3786 43.9929L19.3768 43.9946C19.3734 43.9975 19.3702 44.0005 19.3668 44.0035C19.3423 44.0258 19.3169 44.0487 19.2919 44.0713L15.7075 47.3034ZM18.8883 50.0953C18.711 50.252 18.542 50.3279 18.372 50.3279C18.0174 50.3279 17.6052 49.9947 17.4334 49.569C17.2441 49.1001 17.4687 48.8836 17.5397 48.8151C17.5854 48.7713 17.6402 48.7188 17.6973 48.6577L17.6983 48.6567L17.7104 48.6461C17.935 48.4454 19.9137 46.6575 20.8592 45.8033L20.9296 45.7398C21.25 45.4586 21.5745 45.3099 21.8686 45.3099C22.3324 45.3099 22.6777 45.6649 22.8022 45.9945C22.9261 46.3223 22.8518 46.6092 22.5824 46.8465L22.3401 47.0595C22.3383 47.0612 22.3365 47.0625 22.3347 47.0641L22.333 47.0658L18.8883 50.0953ZM22.37 52.6165C22.3539 52.631 22.3387 52.6461 22.3231 52.6609L22.049 52.9082C21.8054 53.1283 21.5614 53.1883 21.2811 53.0963C20.9268 52.9801 20.6174 52.6401 20.5449 52.288C20.4818 51.9819 20.6043 51.6981 20.9155 51.4239L21.3052 51.0833C21.3151 51.0747 21.3236 51.0653 21.3331 51.0565L23.8862 48.8112C24.498 48.2703 25.1039 48.2162 25.5072 48.667C25.5639 48.7305 26.0449 49.3023 25.4577 49.8327L23.8898 51.2475C23.873 51.2624 23.8559 51.2757 23.8393 51.2908C23.8334 51.2963 23.8285 51.3026 23.8227 51.3079L22.3879 52.6025C22.3821 52.6075 22.3756 52.6113 22.37 52.6165ZM23.8822 55.2396C23.7591 55.103 23.5216 54.7486 23.9112 54.3745L25.4754 52.9631C25.5938 52.8619 25.7079 52.7816 25.8147 52.7265C25.8195 52.7239 25.8245 52.7213 25.8293 52.7188C26.4598 52.3821 26.8015 52.7746 26.8914 52.9029C27.0069 53.0678 27.1477 53.3918 26.7936 53.7099L25.722 54.6731C25.7179 54.6767 25.7139 54.6804 25.7099 54.684L25.2453 55.1015C24.4819 55.7868 24.0089 55.3807 23.8822 55.2396ZM42.3926 49.0697C42.3207 49.3656 42.1096 49.5789 41.8132 49.6549C41.3218 49.7806 40.6999 49.5078 40.1304 48.9235C40.0877 48.8763 40.0439 48.8297 39.9981 48.7846L35.589 44.4261C35.13 43.9728 34.3905 43.977 33.937 44.4358C33.4835 44.8946 33.4877 45.6342 33.9465 46.0876L38.3486 50.439C38.3559 50.4468 38.3634 50.4544 38.3706 50.4622C38.5465 50.6431 38.6443 50.8847 38.6454 51.1463C38.6464 51.4226 38.5417 51.6801 38.3504 51.8717C38.1616 52.0608 37.8794 52.1686 37.5743 52.1686C37.57 52.1686 37.5658 52.1686 37.5615 52.1685C37.2915 52.166 37.0449 52.0755 36.8715 51.9176C36.7983 51.8231 36.7188 51.7315 36.6313 51.6436L33.4079 48.4163C32.952 47.9601 32.2124 47.9595 31.7559 48.4153C31.2995 48.8711 31.2991 49.6107 31.7548 50.0671L34.8117 53.1278C34.8486 53.1817 34.8895 53.2336 34.9365 53.2822L35.0666 53.4164C35.2341 53.7355 35.1303 54.2731 34.8094 54.6037C34.3143 55.1135 33.6176 54.664 33.1212 54.1978L31.7408 52.8983C31.2711 52.4561 30.5317 52.4785 30.0896 52.9481C29.6474 53.4179 29.6697 54.1572 30.1394 54.5994L31.1939 55.592C31.1965 55.5944 31.1985 55.597 31.2011 55.5993C31.2252 55.6219 31.2615 55.6559 31.2633 55.7737C31.2678 56.0475 31.087 56.4228 30.8237 56.6864C30.4394 57.071 29.8004 57.0573 29.3696 56.6552L28.2136 55.5747L28.3549 55.4476C29.5011 54.4184 29.6861 52.821 28.8048 51.5628C28.518 51.1533 28.1588 50.8353 27.7558 50.6145C28.3239 49.4943 28.165 48.1342 27.2482 47.1095C26.7311 46.5313 26.0006 46.1364 25.1851 46.049C25.1618 45.7559 25.0977 45.4605 24.9877 45.1694C24.5909 44.1188 23.7088 43.3455 22.6707 43.0777C22.7139 42.6123 22.6497 42.1318 22.4699 41.6644C21.9783 40.3872 20.7486 39.5289 19.4097 39.5289C18.5317 39.5289 17.6643 39.8867 16.9004 40.5644L13.918 43.2153L13.2625 42.3175L22.1543 30.9286L26.2197 31.5504L25.6047 31.9494C22.3104 34.0867 22.0693 36.5723 22.9422 38.186C23.6408 39.4776 25.035 40.2159 26.5149 40.2159C27.1242 40.2158 27.7483 40.0906 28.344 39.8274C28.3598 39.8203 28.3754 39.8131 28.3907 39.8055L31.4704 38.2785L33.2482 39.8973C33.25 39.8988 33.2518 39.9 33.2535 39.9015C33.2552 39.9031 33.2566 39.9047 33.2583 39.9063L41.4756 47.2143C42.1797 47.8404 42.5225 48.534 42.3926 49.0697ZM42.2943 44.8163L34.8159 38.1653L32.453 36.0139C32.0972 35.6897 31.5788 35.617 31.1477 35.831L27.3781 37.7001C26.354 38.1406 25.3466 37.7215 24.9968 37.0748C24.5161 36.1862 25.2361 34.9731 26.876 33.9093L30.5461 31.5278C32.536 30.2342 34.6235 30.1344 37.4791 30.4658L45.7476 41.0604C44.875 42.6273 44.4117 43.1247 42.2943 44.8163ZM56.601 35.6285C56.567 35.8916 56.4319 36.1251 56.2213 36.2856L49.9871 41.0322C49.7632 41.2035 49.5265 41.2395 49.3673 41.2395C49.0396 41.2394 48.7388 41.0951 48.5428 40.8445L39.0268 28.6515C38.8637 28.4429 38.7925 28.1836 38.8263 27.9212C38.8602 27.6573 38.9957 27.4227 39.208 27.261L45.4348 22.5143C45.6608 22.3431 45.8986 22.3071 46.0586 22.3071C46.3866 22.3071 46.6867 22.4508 46.8829 22.7027L56.4004 34.8937C56.564 35.1039 56.6353 35.3647 56.601 35.6285Z" fill="#3BB77E"/>
<path d="M22.9609 23.7293C24.7948 24.7189 26.8665 25.2419 28.9519 25.2419C35.9042 25.2419 41.5605 19.5794 41.5605 12.6192C41.5605 7.76155 38.7245 3.28193 34.3365 1.20706C32.6462 0.406101 30.8345 0 28.9519 0C22.0011 0 16.3464 5.66097 16.3464 12.6192C16.3464 17.2601 18.8802 21.5169 22.9609 23.7293ZM28.9519 2.33607C30.4857 2.33607 31.9609 2.66653 33.337 3.31842C36.9133 5.00943 39.2242 8.66031 39.2242 12.6192C39.2242 18.2913 34.6161 22.9059 28.952 22.9059C27.2525 22.9059 25.5645 22.4796 24.0724 21.6746C20.7478 19.8719 18.6825 16.4021 18.6825 12.6192C18.6825 6.94911 23.2893 2.33607 28.9519 2.33607Z" fill="#3BB77E"/>
<path d="M6.01242 29.8743C6.22751 30.046 6.48477 30.1294 6.74029 30.1294C7.08338 30.1294 7.42334 29.9789 7.65396 29.6897L7.66717 29.6732C8.06956 29.169 7.98697 28.434 7.48276 28.0317C6.97856 27.6295 6.2435 27.7117 5.84122 28.2161L5.82801 28.2328C5.42562 28.7369 5.5082 29.4719 6.01242 29.8743Z" fill="#3BB77E"/>
</g>
</g>
</g>
<defs>
<clipPath id="clip0_55_295">
<rect width="60" height="60" fill="white"/>
</clipPath>
<clipPath id="clip1_55_295">
<rect width="60" height="60" fill="white"/>
</clipPath>
</defs>
</svg>
