<svg width="60" height="60" viewBox="0 0 60 60" fill="none" xmlns="http://www.w3.org/2000/svg">
<g clip-path="url(#clip0_55_332)">
<g clip-path="url(#clip1_55_332)">
<mask id="mask0_55_332" style="mask-type:luminance" maskUnits="userSpaceOnUse" x="0" y="0" width="60" height="60">
<path d="M59.6294 0H0.324371V59.305H59.6294V0Z" fill="white"/>
</mask>
<g mask="url(#mask0_55_332)">
<path d="M40.2857 57.4286C48.8067 57.4286 55.7143 50.5209 55.7143 42C55.7143 33.479 48.8067 26.5714 40.2857 26.5714C31.7648 26.5714 24.8571 33.479 24.8571 42C24.8571 50.5209 31.7648 57.4286 40.2857 57.4286Z" fill="#FDC040"/>
<path d="M43.4068 25.6726V14.4494C43.4068 14.1281 43.2585 13.8313 43.0486 13.5964L30.4656 0.383235C30.2308 0.136191 29.8968 0 29.5634 0H9.61346C5.9304 0 2.98849 3.00344 2.98849 6.68693V44.4109C2.98849 48.0944 5.9304 51.0485 9.61346 51.0485H25.3609C28.3395 55.9926 33.7536 59.305 39.9211 59.305C49.2903 59.305 56.9414 51.691 56.9414 42.3097C56.9541 34.1147 51.0702 27.2672 43.4068 25.6726ZM30.7995 4.33865L39.2416 13.2255H33.7659C32.1343 13.2255 30.7995 11.8785 30.7995 10.2469V4.33865ZM9.61346 48.5763C7.30226 48.5763 5.46074 46.7221 5.46074 44.4109V6.68693C5.46074 4.36309 7.30226 2.47225 9.61346 2.47225H28.3272V10.2469C28.3272 13.2503 30.7624 15.6977 33.7659 15.6977H40.9347V25.3509C40.564 25.3388 40.2672 25.3017 39.946 25.3017C35.6322 25.3017 31.6646 26.9581 28.6734 29.5539H12.9757C12.2956 29.5539 11.7395 30.11 11.7395 30.7895C11.7395 31.4696 12.2956 32.0257 12.9757 32.0257H26.3744C25.4967 33.2618 24.7672 34.4979 24.1989 35.8575H12.9757C12.2956 35.8575 11.7395 36.4137 11.7395 37.0937C11.7395 37.7733 12.2956 38.3298 12.9757 38.3298H23.3954C23.0864 39.566 22.9257 40.9378 22.9257 42.3097C22.9257 44.5344 23.3583 46.7348 24.137 48.5889H9.61346V48.5763ZM39.9338 56.8455C31.9243 56.8455 25.4103 50.3313 25.4103 42.3219C25.4103 34.3125 31.9116 27.7983 39.9338 27.7983C47.9554 27.7983 54.4569 34.3125 54.4569 42.3219C54.4569 50.3313 47.9433 56.8455 39.9338 56.8455Z" fill="#3BB77E"/>
<path d="M12.9758 25.8332H25.4967C26.1768 25.8332 26.7329 25.2767 26.7329 24.5971C26.7329 23.9171 26.1768 23.361 25.4967 23.361H12.9758C12.2957 23.361 11.7397 23.9171 11.7397 24.5971C11.7397 25.2767 12.2957 25.8332 12.9758 25.8332Z" fill="#3BB77E"/>
<path d="M39.5256 34.6955C39.6247 34.72 39.7234 34.7327 39.8224 34.7327C39.946 34.7327 40.0573 34.72 40.1686 34.6829C41.8001 34.8191 43.0734 36.1787 43.0734 37.8352C43.0734 38.5148 43.6294 39.0708 44.3091 39.0708C44.9891 39.0708 45.5452 38.5148 45.5452 37.8352C45.5452 35.1159 43.6173 32.8414 41.0585 32.3098V31.5188C41.0585 30.8387 40.5021 30.2827 39.8224 30.2827C39.1424 30.2827 38.5863 30.8387 38.5863 31.5188V32.3595C36.1141 32.9527 34.2725 35.1901 34.2725 37.8352C34.2725 40.9499 36.8063 43.4715 39.9088 43.4715C41.6517 43.4715 43.0734 44.8927 43.0734 46.6355C43.0734 48.3785 41.6639 49.8123 39.9088 49.8123C38.166 49.8123 36.7448 48.3906 36.7448 46.6478C36.7448 45.9682 36.1882 45.4116 35.5087 45.4116C34.8286 45.4116 34.2725 45.9682 34.2725 46.6478C34.2725 49.3055 36.1141 51.5303 38.5863 52.1235V53.3967C38.5863 54.0767 39.1424 54.6329 39.8224 54.6329C40.5021 54.6329 41.0585 54.0767 41.0585 53.3967V52.1606C43.6173 51.6289 45.5452 49.3548 45.5452 46.6355C45.5452 43.5209 43.0113 40.9992 39.9088 40.9992C38.166 40.9992 36.7448 39.5777 36.7448 37.8352C36.7448 36.228 37.956 34.8811 39.5256 34.6955Z" fill="#3BB77E"/>
</g>
</g>
</g>
<defs>
<clipPath id="clip0_55_332">
<rect width="60" height="60" fill="white"/>
</clipPath>
<clipPath id="clip1_55_332">
<rect width="60" height="60" fill="white"/>
</clipPath>
</defs>
</svg>
