<svg width="30" height="30" viewBox="0 0 30 30" fill="none" xmlns="http://www.w3.org/2000/svg">
<path d="M28.8831 8.51565C28.8641 5.52178 27.5293 3.25007 24.9465 1.73785C23.8098 1.07209 22.5538 0.78405 21.2365 0.783371C17.0783 0.779975 12.92 0.769785 8.76178 0.786088C5.3773 0.798996 2.54986 2.86487 1.47923 6.09107C1.32162 6.56662 1.26387 7.07612 1.16061 7.57C1.14227 7.65763 1.12733 7.74595 1.11102 7.83358V21.5033C1.18575 21.9191 1.22651 22.3443 1.33996 22.7493C2.20136 25.8239 4.19931 27.7124 7.3141 28.4163C7.59331 28.4794 7.88066 28.5094 8.16395 28.5549H21.8363C22.2528 28.4801 22.6781 28.4394 23.0836 28.3259C26.155 27.4659 28.049 25.4714 28.742 22.3599C28.8533 21.8619 28.8818 21.3376 28.8831 20.8253C28.8941 16.7221 28.909 12.6189 28.8831 8.51565ZM15.0124 22.2804C10.8304 22.3043 7.38475 18.8641 7.38678 14.6671C7.38883 10.4742 10.7781 7.08018 14.9879 7.05642C19.17 7.03263 22.6156 10.4722 22.6135 14.6691C22.6115 18.8621 19.2223 22.2561 15.0124 22.2804ZM23.0728 8.91033C21.816 8.90627 20.759 7.84785 20.7596 6.59378C20.7596 5.33563 21.8133 4.28673 23.0761 4.2881C24.3458 4.28877 25.386 5.3302 25.3825 6.59787C25.3798 7.86143 24.3281 8.91442 23.0728 8.91033Z" fill="#555555"/>
<path d="M20.9728 14.6815C20.962 17.9844 18.2663 20.6617 14.9743 20.6399C11.6767 20.6182 9.01645 17.9416 9.02732 14.6557C9.03818 11.3534 11.7345 8.67473 15.0266 8.69716C18.3241 8.71889 20.9838 11.3955 20.9728 14.6815Z" fill="#555555"/>
<path d="M23.7413 6.59157C23.7426 6.95706 23.4335 7.26819 23.0721 7.26616C22.7141 7.26411 22.3981 6.94211 22.4036 6.58477C22.4096 6.23356 22.7113 5.93329 23.0646 5.92852C23.4348 5.92377 23.7398 6.22269 23.7413 6.59157Z" fill="#555555"/>
</svg>
