<svg width="60" height="60" viewBox="0 0 60 60" fill="none" xmlns="http://www.w3.org/2000/svg">
<g clip-path="url(#clip0_53_239)">
<g clip-path="url(#clip1_53_239)">
<mask id="mask0_53_239" style="mask-type:luminance" maskUnits="userSpaceOnUse" x="0" y="0" width="60" height="60">
<path d="M0.694969 0H60V59.305H0.694969V0Z" fill="white"/>
</mask>
<g mask="url(#mask0_53_239)">
<path d="M22.2857 4.28577H30.8571L41.1429 14.5715L36 17.5715L30.8571 12.4286L20.1429 23.1429L16.2857 27.8572L10.7143 28.7143L8.14285 24.0001V7.71434L12.4286 4.28577H22.2857Z" fill="#FDC040"/>
<path d="M4.6332 12.3328H6.95203L6.9498 8.18732C6.94843 5.40423 9.2112 3.13876 11.9948 3.13739L29.5937 3.12744H29.5959C30.5977 3.12744 31.5397 3.51747 32.2483 4.22602L58.5218 30.4995C59.4751 31.4529 60 32.7202 60 34.0686C60 35.4169 59.4751 36.6842 58.5218 37.6376L41.4712 54.6882C40.4871 55.6723 39.1945 56.1641 37.9023 56.1641C36.6095 56.1641 35.3169 55.6723 34.3328 54.6882L17.7908 38.1462C17.3383 37.6937 17.3383 36.9602 17.7908 36.5083C18.2433 36.0558 18.9767 36.0558 19.4291 36.5083L35.9711 53.0503C37.0358 54.1149 38.7682 54.1149 39.8329 53.0503L56.8834 35.9997C57.3992 35.4839 57.6834 34.7979 57.6834 34.0686C57.6834 33.3392 57.3992 32.6533 56.8834 32.1374L30.6104 5.86438C30.3393 5.59336 29.9792 5.44404 29.5959 5.44404H29.595L11.9961 5.454C10.4903 5.45445 9.26546 6.68062 9.2664 8.18641L9.2718 17.8927H14.4891C14.9385 17.8927 15.3453 17.7089 15.6393 17.413C15.1547 17.2053 14.7004 16.9053 14.3055 16.5103C12.6409 14.8453 12.6409 12.1369 14.3055 10.4723C15.9705 8.8072 18.6789 8.8072 20.344 10.4723C22.0086 12.1369 22.0086 14.8453 20.344 16.5103C19.7269 17.1275 18.9658 17.5153 18.1681 17.675C17.6012 19.155 16.1664 20.2093 14.4891 20.2093H9.27317L9.27634 25.7618C9.27634 26.1451 9.42566 26.5048 9.69669 26.7753L12.8766 29.9557C13.3291 30.4081 13.3291 31.1416 12.8766 31.5941C12.4245 32.0461 11.6912 32.0461 11.2387 31.5941L8.05834 28.4137C7.35069 27.7056 6.96017 26.7645 6.95974 25.7632L6.95657 20.2093H4.6332C2.4618 20.2093 0.694969 18.4429 0.694969 16.271C0.694969 14.0996 2.4618 12.3328 4.6332 12.3328ZM18.7057 12.1102C18.3247 11.7292 17.8247 11.5392 17.3243 11.5392C16.8243 11.5392 16.3244 11.7296 15.9434 12.1102C15.823 12.231 15.7235 12.3644 15.6411 12.5052C16.9125 12.8947 17.9115 13.9123 18.2767 15.1946C18.4301 15.1091 18.5753 15.0027 18.7057 14.8724C19.4672 14.1105 19.4672 12.8717 18.7057 12.1102ZM4.6332 17.8927H6.9552L6.9534 14.6494H4.6332C3.73912 14.6494 3.01157 15.3769 3.01157 16.271C3.01157 17.165 3.73912 17.8927 4.6332 17.8927Z" fill="#3BB77E"/>
<path d="M41.3034 32.352C41.1609 32.8646 40.6953 33.1999 40.1885 33.1999C40.0853 33.1999 39.9808 33.1863 39.8772 33.1574L27.9865 29.8476C27.3703 29.6761 27.0097 29.0373 27.1811 28.421C27.3526 27.8052 27.991 27.4446 28.6077 27.616L40.4985 30.9254C41.1142 31.0973 41.4748 31.7357 41.3034 32.352Z" fill="#3BB77E"/>
<path d="M36.0693 33.8804C36.7146 34.5256 37.0697 35.383 37.0697 36.2956C37.0697 37.2078 36.7146 38.0652 36.0693 38.7105C35.4033 39.3761 34.5291 39.709 33.6546 39.709C32.78 39.709 31.9053 39.3761 31.2393 38.7105C29.9078 37.3788 29.9078 35.212 31.2393 33.8804C32.5709 32.5488 34.7378 32.5488 36.0693 33.8804ZM32.8777 37.072C33.3062 37.5005 34.0029 37.5005 34.4314 37.072C34.6391 36.8649 34.7531 36.5889 34.7531 36.2952C34.7531 36.002 34.6387 35.726 34.4314 35.5183C34.217 35.3043 33.9356 35.197 33.6546 35.197C33.3731 35.197 33.0917 35.3043 32.8777 35.5183C32.4492 35.9468 32.4492 36.6441 32.8777 37.072Z" fill="#3BB77E"/>
<path d="M30.6656 26.9839C29.334 25.6519 29.334 23.4855 30.6656 22.1539C31.3107 21.5088 32.1687 21.1536 33.0808 21.1536C33.993 21.1536 34.8508 21.5088 35.4956 22.1539C36.8271 23.4855 36.8271 25.6519 35.4956 26.9839C34.8296 27.6495 33.9554 27.9825 33.0808 27.9825C32.2062 27.9825 31.3316 27.6495 30.6656 26.9839ZM33.8577 23.7918C33.65 23.5842 33.374 23.4702 33.0808 23.4702C32.7872 23.4702 32.5112 23.5842 32.3039 23.7918C31.8754 24.2203 31.8754 24.9171 32.3039 25.3456C32.732 25.7741 33.4292 25.7741 33.8577 25.3456C34.2857 24.9171 34.2857 24.2203 33.8577 23.7918Z" fill="#3BB77E"/>
<path d="M48.4796 29.9585C48.932 29.506 49.6654 29.506 50.1179 29.9585L53.4091 33.2497C53.6263 33.4669 53.7485 33.7614 53.7485 34.0686C53.7485 34.3759 53.6263 34.6704 53.4091 34.8876L38.7208 49.5758C38.4951 49.8016 38.1982 49.9148 37.9019 49.9148C37.6055 49.9148 37.3092 49.8016 37.0829 49.5758L15.1223 27.6147C14.6698 27.1622 14.6698 26.4288 15.1223 25.9764L29.8101 11.2886C30.0273 11.0714 30.3219 10.9492 30.6291 10.9492C30.9363 10.9492 31.2309 11.0714 31.448 11.2886L43.5654 23.4059C44.0178 23.8584 44.0178 24.5918 43.5654 25.0442C43.1133 25.4963 42.3799 25.4963 41.9275 25.0442L30.6291 13.7459L17.5791 26.7957L37.9019 47.1185L50.9518 34.0686L48.4796 31.5964C48.0275 31.1439 48.0271 30.4109 48.4796 29.9585Z" fill="#3BB77E"/>
<path d="M15.3335 32.8927C15.6385 32.8927 15.9371 33.0166 16.1525 33.232C16.3678 33.4474 16.4919 33.7465 16.4919 34.051C16.4919 34.3555 16.3678 34.6546 16.1525 34.87C15.9371 35.0854 15.6385 35.2093 15.3335 35.2093C15.029 35.2093 14.7304 35.0854 14.5146 34.87C14.2992 34.6546 14.1753 34.3555 14.1753 34.051C14.1753 33.7465 14.2992 33.4474 14.5146 33.232C14.7304 33.0166 15.029 32.8927 15.3335 32.8927Z" fill="#3BB77E"/>
<path d="M45.2042 28.3197C44.9874 28.1044 44.8643 27.8066 44.8643 27.5007C44.8643 27.1962 44.9874 26.8985 45.2042 26.6817C45.4195 26.4664 45.7173 26.3424 46.0227 26.3424C46.3276 26.3424 46.6263 26.4664 46.8416 26.6817C47.0574 26.8971 47.1809 27.1962 47.1809 27.5007C47.1809 27.8066 47.0574 28.1044 46.8416 28.3197C46.6253 28.5364 46.3276 28.659 46.0227 28.659C45.7173 28.659 45.4195 28.5364 45.2042 28.3197Z" fill="#3BB77E"/>
</g>
</g>
</g>
<defs>
<clipPath id="clip0_53_239">
<rect width="60" height="60" fill="white" transform="matrix(-1 0 0 1 60 0)"/>
</clipPath>
<clipPath id="clip1_53_239">
<rect width="60" height="60" fill="white" transform="matrix(-1 0 0 1 60 0)"/>
</clipPath>
</defs>
</svg>
