<svg width="29" height="29" viewBox="0 0 29 29" fill="none" xmlns="http://www.w3.org/2000/svg">
<path d="M27.2106 26.2684C23.9362 21.7561 20.6589 17.2451 17.3831 12.7337C17.3402 12.6749 17.3011 12.6137 17.2478 12.5356C17.8215 11.9039 18.3925 11.2749 18.9641 10.6461C21.9346 7.37853 24.9055 4.11067 27.8761 0.842806C27.8944 0.82231 27.9092 0.799101 27.9258 0.7771H25.403C22.3197 4.16793 19.2362 7.55908 16.1039 11.0039C16.0663 10.9397 16.0395 10.8845 16.0037 10.8354C13.5984 7.52172 11.1924 4.20863 8.78705 0.89495C8.76056 0.858178 8.74173 0.816583 8.71908 0.7771H0.176392C0.250432 0.891635 0.318728 1.00979 0.398831 1.1201C4.00923 6.09393 7.6206 11.0672 11.232 16.0407C11.2696 16.0926 11.3057 16.1456 11.3584 16.2207C11.0651 16.5456 10.7702 16.8738 10.4731 17.2006C7.11573 20.8931 3.75808 24.5853 0.401065 28.2783C0.321281 28.3663 0.25107 28.4624 0.176392 28.5549H2.69917C3.84169 27.2923 4.98198 26.0279 6.12672 24.7671C8.16187 22.5256 10.1999 20.2858 12.2366 18.0458C12.311 17.9638 12.3876 17.8838 12.4763 17.7883C12.5337 17.8539 12.5848 17.9046 12.6263 17.9616C15.1513 21.4383 17.6757 24.9154 20.1998 28.3931C20.2372 28.4446 20.2672 28.5009 20.3005 28.5549H28.8429C28.2992 27.7926 27.7608 27.0268 27.2106 26.2684ZM25.0605 26.8281C23.9716 26.8291 22.8828 26.8236 21.7938 26.8333C21.5912 26.8348 21.4665 26.7803 21.3481 26.6201C15.4995 18.6956 9.64618 10.7736 3.79382 2.85138C3.73989 2.77845 3.69074 2.7022 3.60457 2.57742C4.67273 2.57742 5.68503 2.61538 6.69224 2.56293C7.28806 2.5319 7.61645 2.72992 7.95379 3.18867C13.6686 10.9593 19.406 18.7151 25.1385 26.4743C25.2128 26.5749 25.2846 26.6771 25.3822 26.8121C25.2421 26.8194 25.1515 26.8278 25.0605 26.8281Z" fill="#555555"/>
</svg>
