<svg width="28" height="20" viewBox="0 0 28 20" fill="none" xmlns="http://www.w3.org/2000/svg">
<path d="M27.3026 3.89106C27.002 2.18726 25.9868 1.09354 24.3993 0.795769C23.7444 0.672433 23.0776 0.582574 22.4123 0.55174C19.5911 0.420915 16.7685 0.318283 13.9465 0.205078C13.9456 0.23503 13.9448 0.264984 13.9439 0.294937C13.295 0.294937 12.6456 0.285246 11.9971 0.296698C9.30644 0.34295 6.61537 0.373343 3.93888 0.716041C2.27424 0.928795 1.12111 1.94411 0.77453 3.63206C0.580835 4.57469 0.475184 5.54112 0.398737 6.50269C0.235108 8.55932 0.194738 10.6226 0.337322 12.6823C0.425793 13.9562 0.53918 15.234 0.745745 16.4925C1.01675 18.1408 2.12436 19.2305 3.68378 19.468C4.60715 19.6085 5.53954 19.7283 6.47149 19.7595C9.33221 19.8546 12.1946 19.9428 15.0566 19.9574C17.9096 19.9723 20.7639 19.9028 23.6057 19.5966C24.3384 19.5172 25.0604 19.3975 25.7008 18.9768C26.7598 18.2812 27.2417 17.236 27.3572 16.0083C27.5131 14.3473 27.6711 12.6823 27.7244 11.0159C27.8012 8.63157 27.718 6.24809 27.3026 3.89106ZM11.2807 14.3358V5.91597C13.6634 7.32068 16.0212 8.71085 18.4207 10.1257C16.0247 11.5388 13.6673 12.9285 11.2807 14.3358Z" fill="#555555"/>
</svg>
